<svg width="3403" height="1824" viewBox="0 0 3403 1824" fill="none" xmlns="http://www.w3.org/2000/svg">
<g filter="url(#filter0_f_32_30)">
<path d="M817.088 887.438C862.238 869.409 1226.78 842.712 1454.03 855.441C1515.34 764.122 1712.61 687.94 2022.51 702.882C2261.29 714.393 2392.63 720.973 2456.29 738.859C2654.83 794.644 2632.85 842.859 2687.32 899.135C2763.39 977.725 2522.23 1057.84 2456.29 1077.99C2384.8 1099.84 2282.46 1120.16 2171.1 1120.16C2080.55 1120.16 1776.23 1126.55 1712.61 1120.16C1653.13 1114.19 1501.75 1079.3 1502.72 1078.03C1494.1 1078.43 1365.17 1082.57 1279.47 1101.58C1170.42 1125.77 832.756 1110.12 766.927 1101.58C726.021 1096.27 618.549 966.716 817.088 887.438Z" fill="#0500FF" fill-opacity="0.73"/>
<path d="M1454.03 855.441C1226.78 842.712 862.238 869.409 817.088 887.438C618.549 966.716 726.021 1096.27 766.927 1101.58C832.756 1110.12 1170.42 1125.77 1279.47 1101.58C1370.32 1081.43 1509.76 1077.99 1502.93 1077.99C1496.09 1077.99 1652.03 1114.08 1712.61 1120.16C1776.23 1126.55 2080.55 1120.16 2171.1 1120.16C2282.46 1120.16 2384.8 1099.84 2456.29 1077.99C2522.23 1057.84 2763.39 977.725 2687.32 899.135C2632.85 842.859 2654.83 794.644 2456.29 738.859C2392.63 720.973 2261.29 714.393 2022.51 702.882C1712.61 687.94 1515.34 764.122 1454.03 855.441Z" stroke="black"/>
</g>
<defs>
<filter id="filter0_f_32_30" x="0.500061" y="0.5" width="3402" height="1823" filterUnits="userSpaceOnUse" color-interpolation-filters="sRGB">
<feFlood flood-opacity="0" result="BackgroundImageFix"/>
<feBlend mode="normal" in="SourceGraphic" in2="BackgroundImageFix" result="shape"/>
<feGaussianBlur stdDeviation="350" result="effect1_foregroundBlur_32_30"/>
</filter>
</defs>
</svg>
