<svg width="13516" height="8295" viewBox="0 0 13516 8295" fill="none" xmlns="http://www.w3.org/2000/svg">
<g filter="url(#filter0_f_8_5)">
<path d="M2552.5 3897.5C2767.18 3714.09 4500.5 3442.5 5581 3572C5872.5 2643 6810.5 1868 8284 2020C9419.33 2137.11 10043.8 2204.04 10346.5 2386C11290.5 2953.5 11186 3444 11445 4016.5C11806.7 4816 10660 5631 10346.5 5836C10006.6 6058.29 9520 6265 8990.5 6265C8559.93 6265 7113 6330 6810.5 6265C6527.68 6204.23 5807.9 5849.29 5812.49 5836.36C5771.53 5840.52 5158.5 5882.63 4751 6076C4232.5 6322.05 2627 6162.9 2314 6076C2119.5 6022 1608.5 4704 2552.5 3897.5Z" fill="#72267B" fill-opacity="0.73"/>
<path d="M5581 3572C4500.5 3442.5 2767.18 3714.09 2552.5 3897.5C1608.5 4704 2119.5 6022 2314 6076C2627 6162.9 4232.5 6322.05 4751 6076C5183 5871 5846 5836 5813.5 5836C5781 5836 6522.42 6203.1 6810.5 6265C7113 6330 8559.93 6265 8990.5 6265C9520 6265 10006.6 6058.29 10346.5 5836C10660 5631 11806.7 4816 11445 4016.5C11186 3444 11290.5 2953.5 10346.5 2386C10043.8 2204.04 9419.33 2137.11 8284 2020C6810.5 1868 5872.5 2643 5581 3572Z" stroke="black"/>
</g>
<defs>
<filter id="filter0_f_8_5" x="0.032959" y="0.357422" width="13515.2" height="8294.03" filterUnits="userSpaceOnUse" color-interpolation-filters="sRGB">
<feFlood flood-opacity="0" result="BackgroundImageFix"/>
<feBlend mode="normal" in="SourceGraphic" in2="BackgroundImageFix" result="shape"/>
<feGaussianBlur stdDeviation="1000" result="effect1_foregroundBlur_8_5"/>
</filter>
</defs>
</svg>
