<svg width="1080" height="1400" viewBox="0 0 1080 1400" fill="none" xmlns="http://www.w3.org/2000/svg">
<rect width="1080" height="1400" fill="#1E1E1E"/>
<rect width="1080" height="1400" fill="black"/>
<g filter="url(#filter0_f_0_1)">
<path d="M-748.345 670.003C-734.604 559.891 -746.959 502.148 -761.153 474.397C-805.971 456.777 -781.645 434.333 -761.153 474.397C-745.785 480.439 -722.285 485.914 -687.713 488.106C-570.871 495.517 -353.166 447.959 -367.749 536.616C-395.241 703.762 -319.694 780.114 -172.782 845.161C-124.138 866.699 56.6636 735.051 108.212 909.607C159.76 1084.16 959.69 1240.63 1081.69 1303.2C1203.68 1365.78 809.564 1332.4 759.978 1466.17C713.585 1591.32 72.9872 1746.16 -337.679 1545.26C-666.212 1384.53 -936.782 1361.92 -1031 1370.7L-748.345 670.003Z" fill="#722EA7"/>
<path d="M-748.345 670.003C-707.966 346.415 -892.942 475.09 -687.713 488.106C-570.871 495.517 -353.166 447.959 -367.749 536.616C-395.241 703.762 -319.694 780.114 -172.782 845.161C-124.138 866.699 56.6636 735.051 108.212 909.607C159.76 1084.16 959.69 1240.63 1081.69 1303.2C1203.68 1365.78 809.564 1332.4 759.978 1466.17C713.585 1591.32 72.9871 1746.16 -337.679 1545.26C-666.212 1384.53 -936.782 1361.92 -1031 1370.7L-748.345 670.003Z" stroke="black"/>
</g>
<g filter="url(#filter1_f_0_1)">
<path d="M665.865 1671.15L545.637 1477.27C539.893 1445.93 489.693 1392.81 440.701 1348.98C418.967 1346.75 394.213 1331.61 363.545 1301C308.746 1246.32 373.59 1288.93 440.701 1348.98C486.151 1353.63 518.399 1301.81 563.93 1216.77L879.843 1119.31L1030.38 769L1494 901.653L1285.51 1352.13L1167.49 1490.97V1749.82L798.174 1762L665.865 1671.15Z" fill="#155FDE"/>
<path d="M665.865 1671.15L545.637 1477.27C532.023 1403 268.743 1206.4 363.545 1301C458.346 1395.61 496.625 1342.47 563.93 1216.77L879.843 1119.31L1030.38 769L1494 901.653L1285.51 1352.13L1167.49 1490.97V1749.82L798.174 1762L665.865 1671.15Z" stroke="black"/>
</g>
<defs>
<filter id="filter0_f_0_1" x="-1231.77" y="251.5" width="2537.27" height="1591" filterUnits="userSpaceOnUse" color-interpolation-filters="sRGB">
<feFlood flood-opacity="0" result="BackgroundImageFix"/>
<feBlend mode="normal" in="SourceGraphic" in2="BackgroundImageFix" result="shape"/>
<feGaussianBlur stdDeviation="100" result="effect1_foregroundBlur_0_1"/>
</filter>
<filter id="filter1_f_0_1" x="192.5" y="618.398" width="1452.2" height="1294.11" filterUnits="userSpaceOnUse" color-interpolation-filters="sRGB">
<feFlood flood-opacity="0" result="BackgroundImageFix"/>
<feBlend mode="normal" in="SourceGraphic" in2="BackgroundImageFix" result="shape"/>
<feGaussianBlur stdDeviation="75" result="effect1_foregroundBlur_0_1"/>
</filter>
</defs>
</svg>
