<svg width="416" height="600" viewBox="0 0 416 600" fill="none" xmlns="http://www.w3.org/2000/svg">
<path fill-rule="evenodd" clip-rule="evenodd" d="M291 142C291 96.1602 253.84 59 208 59C162.16 59 125 96.1602 125 142V232H291V142ZM350 232H366C393.614 232 416 254.386 416 282V550C416 577.614 393.614 600 366 600H50C22.3858 600 0 577.614 0 550V282C0 254.386 22.3858 232 50 232H66V142C66 63.5757 129.576 0 208 0C286.424 0 350 63.5757 350 142V232ZM241.839 439.81C239.524 441.939 238 444.854 238 447.999V477.5C238 493.792 224.792 507 208.5 507C192.208 507 179 493.792 179 477.5V448.886C179 445.654 177.392 442.671 174.967 440.535C164.564 431.372 158 417.953 158 403C158 375.386 180.386 353 208 353C235.614 353 258 375.386 258 403C258 417.563 251.774 430.672 241.839 439.81Z" fill="white"/>
</svg>
