<svg width="1603" height="1304" viewBox="0 0 1603 1304" fill="none" xmlns="http://www.w3.org/2000/svg">
<g filter="url(#filter0_f_32_28)">
<path d="M461.371 523.874C472.857 502.571 485.038 480.905 494.329 459.055C494.329 456.989 491.847 456.036 491.847 454.526C491.847 452.317 493.468 452.94 495.294 451.607C499.785 448.329 505.759 447.089 510.463 443.655L534.32 426.243C544.921 418.505 554.561 410.112 569.347 406.716C586.04 402.883 603.303 400.697 620.784 400.224C638.299 399.751 655.935 400.174 673.462 400.174C685.542 400.174 693.501 403.795 701.593 410.34C717.82 423.464 730.081 438.479 749.031 449.795C762.875 458.062 776.732 466.16 789.298 475.512C838.932 512.449 910.543 535.974 981.807 531.524C1008.19 529.876 1031.36 529.698 1055.58 538.066C1076.82 545.404 1099.91 553.517 1115.43 566.802C1125.91 575.768 1131.17 586.124 1138.74 596.545C1154.08 617.661 1175.83 636.246 1189.9 657.841C1194.34 664.659 1203 674.501 1203 682.35V719.239V719.566C1203 744.87 1203 772.219 1188.8 795.834C1176.76 815.845 1151.59 832.703 1121.09 835.34C1090.07 838.021 1058.27 830.896 1027.25 830.509C987.47 830.012 944.585 828.102 906.376 837.605C862.216 848.587 831.963 876.872 790.677 891.654C745.234 907.926 689.653 905.298 640.986 899.656C557.678 889.999 490.619 845.953 448.684 794.224C422.64 762.098 400.226 725.237 400.005 687.332C399.878 665.613 402.238 644.26 410.623 623.368C424.26 589.389 443.629 556.778 461.371 523.874Z" fill="#5E2667" fill-opacity="0.83"/>
</g>
<defs>
<filter id="filter0_f_32_28" x="0" y="0" width="1603" height="1304" filterUnits="userSpaceOnUse" color-interpolation-filters="sRGB">
<feFlood flood-opacity="0" result="BackgroundImageFix"/>
<feBlend mode="normal" in="SourceGraphic" in2="BackgroundImageFix" result="shape"/>
<feGaussianBlur stdDeviation="200" result="effect1_foregroundBlur_32_28"/>
</filter>
</defs>
</svg>
