<?xml version="1.0" encoding="UTF-8"?>
<svg id="Layer_1" data-name="Layer 1" xmlns="http://www.w3.org/2000/svg" xmlns:xlink="http://www.w3.org/1999/xlink" viewBox="0 0 527.98 600.68">
  <defs>
    <style>
      .cls-1 {
        fill: url(#radial-gradient);
      }
    </style>
    <radialGradient id="radial-gradient" cx="263.99" cy="300.34" fx="263.99" fy="300.34" r="282.75" gradientUnits="userSpaceOnUse">
      <stop offset=".05" stop-color="#9e86c4"/>
      <stop offset=".14" stop-color="#8f74ba"/>
      <stop offset=".41" stop-color="#6a47a4"/>
      <stop offset=".66" stop-color="#4f2793"/>
      <stop offset=".86" stop-color="#3e1489"/>
      <stop offset="1" stop-color="#390d86"/>
    </radialGradient>
  </defs>
  <path class="cls-1" d="M.47,506.22c5.45-16.83,51.93,2.04,113.44-18.56,85.9-28.77,132.3-111.01,148.51-141.29,29.26-54.67,12.54-53.6,45.38-128.91,53.96-123.76,118.23-170.55,134.07-181.51C481.39,8.6,522.29-5.37,527.47,1.91c6.19,8.7-45.25,38.48-61.88,102.1-4.34,16.62-4.61,35.49-5.16,73.22-.6,41.91,2.61,55.76,3.09,92.82,.21,16.16,.75,57.34-5.16,93.85-4.11,25.37-15.46,95.47-73.22,155.73-60.14,62.73-133.12,75.71-150.57,78.38-13.2,2.02-71.79,9.93-138.19-16.5C49.44,562.81-5.69,525.25,.47,506.22Z"/>
</svg>