<svg width="300" height="300" viewBox="0 0 300 300" fill="none" xmlns="http://www.w3.org/2000/svg">
<path fill-rule="evenodd" clip-rule="evenodd" d="M234.697 232.703C234.84 231.944 234.893 230.939 234.893 229.554L234.893 218.054C234.893 216.919 235.812 216 236.946 216C238.081 216 239 216.919 239 218.054L239 229.554C239 230.981 238.951 232.306 238.734 233.461C238.513 234.635 238.094 235.782 237.243 236.731C235.551 238.618 232.811 239 229.554 239H218.054C216.919 239 216 238.081 216 236.946C216 235.812 216.919 234.893 218.054 234.893H229.554C232.867 234.893 233.824 234.391 234.185 233.989C234.362 233.792 234.558 233.443 234.697 232.703Z" fill="#8550ED" fill-opacity="0.75"/>
<path fill-rule="evenodd" clip-rule="evenodd" d="M65.3029 232.703C65.1604 231.944 65.1071 230.939 65.1071 229.554L65.1072 218.054C65.1072 216.919 64.1877 216 63.0536 216C61.9194 216 61 216.919 61 218.054L61 229.554C61 230.981 61.0495 232.306 61.2663 233.461C61.4868 234.635 61.9063 235.782 62.7568 236.731C64.4494 238.618 67.1888 239 70.4464 239H81.9464C83.0806 239 84 238.081 84 236.946C84 235.812 83.0806 234.893 81.9464 234.893H70.4464C67.1326 234.893 66.1756 234.391 65.8146 233.989C65.6384 233.792 65.4418 233.443 65.3029 232.703Z" fill="#8550ED" fill-opacity="0.75"/>
<path fill-rule="evenodd" clip-rule="evenodd" d="M65.3029 67.2971C65.1604 68.056 65.1071 69.0614 65.1071 70.4464L65.1072 81.9464C65.1072 83.0806 64.1877 84 63.0536 84C61.9194 84 61 83.0806 61 81.9464L61 70.4464C61 69.0187 61.0495 67.6937 61.2663 66.539C61.4868 65.3652 61.9063 64.2179 62.7568 63.2694C64.4494 61.382 67.1888 61 70.4464 61H81.9464C83.0806 61 84 61.9194 84 63.0536C84 64.1877 83.0806 65.1071 81.9464 65.1071H70.4464C67.1326 65.1071 66.1756 65.6088 65.8146 66.0114C65.6384 66.208 65.4418 66.5574 65.3029 67.2971Z" fill="#8550ED" fill-opacity="0.75"/>
<path fill-rule="evenodd" clip-rule="evenodd" d="M234.697 67.2971C234.84 68.056 234.893 69.0614 234.893 70.4464L234.893 81.9464C234.893 83.0806 235.812 84 236.946 84C238.081 84 239 83.0806 239 81.9464L239 70.4464C239 69.0187 238.951 67.6937 238.734 66.539C238.513 65.3652 238.094 64.2179 237.243 63.2694C235.551 61.382 232.811 61 229.554 61H218.054C216.919 61 216 61.9194 216 63.0536C216 64.1877 216.919 65.1071 218.054 65.1071H229.554C232.867 65.1071 233.824 65.6088 234.185 66.0114C234.362 66.208 234.558 66.5574 234.697 67.2971Z" fill="#8550ED" fill-opacity="0.78"/>
<g filter="url(#filter0_f_19_22)">
<circle cx="150" cy="150" r="100" fill="#4B09D2" fill-opacity="0.74"/>
</g>
<line x1="150.5" y1="135.5" x2="150.5" y2="162.5" stroke="#8550ED" stroke-opacity="0.75" stroke-width="3" stroke-linecap="round"/>
<line x1="136.5" y1="148.5" x2="163.5" y2="148.5" stroke="#8550ED" stroke-opacity="0.75" stroke-width="3" stroke-linecap="round"/>
<defs>
<filter id="filter0_f_19_22" x="0" y="0" width="300" height="300" filterUnits="userSpaceOnUse" color-interpolation-filters="sRGB">
<feFlood flood-opacity="0" result="BackgroundImageFix"/>
<feBlend mode="normal" in="SourceGraphic" in2="BackgroundImageFix" result="shape"/>
<feGaussianBlur stdDeviation="25" result="effect1_foregroundBlur_19_22"/>
</filter>
</defs>
</svg>
